<svg width="24" height="24" viewBox="0 0 24 24" fill="none" xmlns="http://www.w3.org/2000/svg">
<path fill-rule="evenodd" clip-rule="evenodd" d="M4.25 11.625C4.25 11.0727 4.69772 10.625 5.25 10.625H19C19.5523 10.625 20 11.0727 20 11.625C20 12.1773 19.5523 12.625 19 12.625H5.25C4.69772 12.625 4.25 12.1773 4.25 11.625Z" fill="white"/>
<path fill-rule="evenodd" clip-rule="evenodd" d="M12.6679 5.29289C13.0584 4.90237 13.6916 4.90237 14.0821 5.29289L19.7071 10.9179C20.0976 11.3084 20.0976 11.9416 19.7071 12.3321L14.0821 17.9571C13.6916 18.3476 13.0584 18.3476 12.6679 17.9571C12.2774 17.5666 12.2774 16.9334 12.6679 16.5429L17.5858 11.625L12.6679 6.70711C12.2774 6.31658 12.2774 5.68342 12.6679 5.29289Z" fill="white"/>
</svg>
